<svg width="185" height="397" viewBox="0 0 185 397" fill="none" xmlns="http://www.w3.org/2000/svg">
<path d="M38.1685 132.745L6.10352e-05 44.3812C6.10352e-05 44.3812 3.57835 36.0224 11.9277 37.2165C11.9277 37.2165 23.259 7.96075 44.7287 7.96075C44.7287 7.96075 76.9334 -9.95093 86.4755 7.96075C86.4755 7.96075 106.753 25.8724 105.56 42.59C104.367 59.3076 103.174 71.2487 103.174 71.2487C103.174 71.2487 122.258 73.6369 118.68 83.1898C115.102 92.7427 113.909 92.7427 118.68 96.325L123.451 99.9074C123.451 99.9074 222.451 189.466 167.584 320.818L162.812 341.118V360.224C162.812 360.224 42.3432 361.418 42.3432 360.224C42.3432 359.03 44.7287 351.865 39.9577 347.088C35.1866 342.312 35.1866 335.147 35.1866 335.147C35.1866 335.147 39.9577 311.265 37.5722 304.1C35.1866 296.936 33.9939 265.889 38.7649 258.724C43.536 251.56 41.1505 194.242 41.1505 194.242L30.4156 173.942L33.9939 162.001L37.5722 150.06L38.1685 132.745Z" fill="#8985A8"/>
<path opacity="0.1" d="M48.307 372.165C48.307 372.165 62.6202 332.759 61.4275 325.594C60.2347 318.43 63.813 304.1 63.813 304.1L68.584 207.377C68.584 207.377 48.307 121.401 93.6321 107.072C93.6321 107.072 105.101 112.082 114.498 128.204C123.791 132.348 135.067 142.835 137.764 169.166C142.536 215.736 121.066 335.147 110.331 355.447C99.596 375.747 92.4394 390.076 92.4394 390.076L81.2196 385.084C80.7563 386.004 80.5117 386.494 80.5117 386.494L48.307 372.165Z" fill="black"/>
<path d="M41.7468 121.999C39.7705 121.999 38.1684 120.395 38.1684 118.416C38.1684 116.438 39.7705 114.834 41.7468 114.834C43.723 114.834 45.3251 116.438 45.3251 118.416C45.3251 120.395 43.723 121.999 41.7468 121.999Z" fill="#F2F2F2"/>
<path d="M40.5541 118.416H42.9397V174.539H40.5541V118.416Z" fill="#3F3D56"/>
<path d="M84.6863 376.344L75.1442 396.644C75.1442 396.644 53.6745 389.479 53.6745 385.897C53.6745 382.314 63.2166 366.791 63.2166 366.791L84.6863 376.344Z" fill="#FFB8B8"/>
<path d="M98.4032 107.072C98.4032 107.072 125.837 119.013 130.608 165.583C135.379 212.154 113.909 331.565 103.174 351.865C92.4394 372.165 85.2828 386.494 85.2828 386.494L53.0782 372.165C53.0782 372.165 67.3913 332.759 66.1986 325.594C65.0058 318.43 68.5841 304.1 68.5841 304.1L73.3552 207.377C73.3552 207.377 53.0782 121.401 98.4032 107.072Z" fill="#8985A8"/>
</svg>
